<?xml version="1.0" encoding="utf-8"?>
<!-- Svg Vector Icons : http://www.onlinewebfonts.com/icon -->
<!DOCTYPE svg PUBLIC "-//W3C//DTD SVG 1.1//EN" "http://www.w3.org/Graphics/SVG/1.1/DTD/svg11.dtd">
<svg version="1.1" xmlns="http://www.w3.org/2000/svg" xmlns:xlink="http://www.w3.org/1999/xlink" x="0px" y="0px" viewBox="0 0 1000 1000" enable-background="new 0 0 1000 1000" xml:space="preserve">
<metadata> Svg Vector Icons : http://www.onlinewebfonts.com/icon </metadata>
<g><g><g><path d="M866.2,912.1c0,0,37.6-232-20.7-372.7c0,0-31.3-113.3-31.1-145c0,0-327,216.1-453.8,197.6c0,0,168-112.6,195.4-171.4c0,0-258.9,180.2-344.9,166.3c0,0,86.3-58.6,104.5-90.2c0,0-203.9,40-209.4,248.3L83,916.9c0,0-43.5-209.9-57.8-258.4c-44.5-149.6,16.7-405.6,83.3-457.2c0,0,123.2-212.5,562.3-147.3c0,0,233,11.3,313.3,325.8c18.7,73.4-10.8,238-34.8,300.5c-23.9,61.9-85.6,278.2-85.6,278.2L866.2,912.1z"/></g></g><g></g><g></g><g></g><g></g><g></g><g></g><g></g><g></g><g></g><g></g><g></g><g></g><g></g><g></g><g></g></g>
</svg>