<?xml version="1.0" encoding="utf-8"?>
<!-- Generator: Adobe Illustrator 22.0.1, SVG Export Plug-In . SVG Version: 6.00 Build 0)  -->
<svg version="1.1" id="Réteg_1" xmlns="http://www.w3.org/2000/svg" xmlns:xlink="http://www.w3.org/1999/xlink" x="0px" y="0px"
	 viewBox="0 0 24 24" style="enable-background:new 0 0 24 24;" xml:space="preserve">
<style type="text/css">
	.st0{fill:none;}
</style>
<path class="st0" d="M0,0h24v24H0V0z"/>
<path d="M13.5,5.5c1.1,0,2-0.9,2-2s-0.9-2-2-2s-2,0.9-2,2S12.4,5.5,13.5,5.5z M9.6,9.8L7,23h2.1l1.8-8l2.1,2v6h2v-7.5l-2.1-2l0.6-3
	c0.9,1,2.2,1.9,3.6,2.2c0.3,0.1,0.7,10.2,1,10.3c0.1,0,0.4,0,0.4,0c0.3-2.6,0.6-10,0.6-10v-2c-1.9,0-3.5-1-4.3-2.4l-1-1.6
	c-0.4-0.6-1-1-1.7-1c-0.2,0-1.2,0.1-1.6,0.2c-0.1,0-0.2,0.1-0.3,0.2l-2.7,3.8c-0.1,0.1-0.1,0.2-0.1,0.3L7,14.8l1.5,0l0.5-3.8
	L9.6,9.8"/>
</svg>
