<?xml version="1.0" encoding="utf-8"?>
<!-- Svg Vector Icons : http://www.onlinewebfonts.com/icon -->
<!DOCTYPE svg PUBLIC "-//W3C//DTD SVG 1.1//EN" "http://www.w3.org/Graphics/SVG/1.1/DTD/svg11.dtd">
<svg version="1.1" xmlns="http://www.w3.org/2000/svg" xmlns:xlink="http://www.w3.org/1999/xlink" x="0px" y="0px" viewBox="0 0 1000 1000" enable-background="new 0 0 1000 1000" xml:space="preserve">
<metadata> Svg Vector Icons : http://www.onlinewebfonts.com/icon </metadata>
<g><path d="M500,762.5C157.9,762.5,10,500,10,500s148.8-262.5,490-262.5c322.2,0,490,262.5,490,262.5S823.3,762.5,500,762.5z M548.1,351.3c-26.6,0-48.1,21.5-48.1,48.1c0,26.6,21.5,48.1,48.1,48.1c26.6,0,48.1-21.5,48.1-48.1C596.3,372.8,574.7,351.3,548.1,351.3z M665.7,349.9c16.9,28.6,26.8,61.9,26.8,97.6C692.5,553.8,606.3,640,500,640c-106.3,0-192.5-86.2-192.5-192.5c0-35.8,9.9-69.1,26.9-97.8C182.3,397.9,115,500,115,500s112.8,175,385,175c271.2,0,385-175,385-175S817,398.2,665.7,349.9z"/></g>
</svg>