<?xml version="1.0" encoding="utf-8"?>
<!-- Svg Vector Icons : http://www.onlinewebfonts.com/icon -->
<!DOCTYPE svg PUBLIC "-//W3C//DTD SVG 1.1//EN" "http://www.w3.org/Graphics/SVG/1.1/DTD/svg11.dtd">
<svg version="1.1" xmlns="http://www.w3.org/2000/svg" xmlns:xlink="http://www.w3.org/1999/xlink" x="0px" y="0px" viewBox="0 0 1000 1000" enable-background="new 0 0 1000 1000" xml:space="preserve">
<metadata> Svg Vector Icons : http://www.onlinewebfonts.com/icon </metadata>
<g><g transform="translate(0.000000,511.000000) scale(0.100000,-0.100000)"><path d="M4672.9,5011.9C2518,4837.3,763.1,3365.3,239.3,1298.8c-103.9-411.1-139.2-705-139.2-1169.2c-2.2-594.5,66.3-1023.3,245.3-1567c415.5-1251,1321.7-2285.3,2515.2-2864.4c612.2-298.4,1175.8-446.5,1854.3-486.2C6153.7-4872,7524-4337.2,8529.7-3294c532.6,552.6,888.5,1142.7,1127.2,1865.4c179,543.7,243.1,948.2,243.1,1547.1c2.2,669.7-101.7,1215.6-342.6,1812.3c-652,1624.5-2126.2,2784.8-3861.2,3039C5455.3,5003,4878.4,5027.3,4672.9,5011.9z M5453.1,4293.6c948.2-101.7,1843.3-532.7,2521.8-1211.2c696.2-696.2,1109.5-1571.4,1217.8-2570.4c97.3-915-156.9-1933.9-676.3-2714.1c-709.5-1063.1-1819-1739.4-3085.4-1876.4c-1315-143.7-2700.8,397.8-3578.3,1396.8C909-1605.4,570.8-155.5,939.9,1219.2c123.8,464.1,389,1003.4,689.6,1407.9c183.4,247.5,574.6,643.2,815.6,824.4C3318.1,4110.1,4387.8,4410.7,5453.1,4293.6z"/><path d="M3203.1,2174c-448.7-95-769.1-557-691.8-1003.4c48.6-289.5,245.3-548.1,508.3-671.9c114.9-53.1,154.7-59.7,360.3-59.7c214.4,0,243.1,4.4,380.2,70.7c594.5,280.7,680.7,1100.7,156.9,1500.7C3733.6,2149.7,3428.6,2220.4,3203.1,2174z"/><path d="M6430,2165.2c-260.8-55.3-499.5-249.8-614.4-495.1c-53.1-112.7-59.7-152.5-59.7-369.1c0-223.2,4.4-254.2,64.1-375.7c84-170.2,252-338.2,422.2-422.1c121.6-59.7,152.5-64.1,375.7-64.1c221,0,254.2,4.4,369.1,61.9c453.1,223.2,634.3,724.9,426.6,1182.4c-108.3,238.7-355.8,431-625.5,488.4C6646.6,2200.5,6589.1,2200.5,6430,2165.2z"/><path d="M4787.8-593.2c-705.1-66.3-1337.2-512.8-1642.2-1153.7c-66.3-139.3-79.6-185.7-68.5-260.8c22.1-170.2,174.6-305,340.4-305c163.5,0,265.2,75.2,353.6,258.6c265.2,563.6,904,877.4,1518.4,747c377.9-79.6,742.6-364.7,939.3-731.6c72.9-137,112.7-190.1,179-227.6c280.7-156.9,590.1,97.2,497.3,408.9c-88.4,300.6-495.1,782.4-820,972.5C5674.1-644,5247.5-546.7,4787.8-593.2z"/></g></g>
</svg>