<?xml version="1.0" encoding="utf-8"?>
<!-- Svg Vector Icons : http://www.onlinewebfonts.com/icon -->
<!DOCTYPE svg PUBLIC "-//W3C//DTD SVG 1.1//EN" "http://www.w3.org/Graphics/SVG/1.1/DTD/svg11.dtd">
<svg version="1.1" xmlns="http://www.w3.org/2000/svg" xmlns:xlink="http://www.w3.org/1999/xlink" x="0px" y="0px" viewBox="0 0 1000 1000" enable-background="new 0 0 1000 1000" xml:space="preserve">
<metadata> Svg Vector Icons : http://www.onlinewebfonts.com/icon </metadata>
<g><g transform="translate(0.000000,120.000000) scale(0.100000,-0.100000)"><path d="M3787.5,952.8C2894.4,715.2,2255.4,346.5,1559-358C846.2-1062.7,485.7-1693.5,248.1-2619.3c-295-1155.2-147.5-2408.7,426-3498.3c344.1-663.7,1343.6-1663.2,2007.3-2007.3c1089.6-573.5,2343.2-721,3498.3-426.1c925.9,237.5,1556.7,598.1,2261.3,1310.9c712.8,704.6,1073.3,1335.4,1310.9,2261.2c294.9,1155.3,147.5,2408.8-426.1,3498.4C8981.7-816.9,7982.2,182.7,7318.6,526.8C6237.1,1092.1,4934.5,1247.8,3787.5,952.8z M5974.9,338.4C8236.2-202.4,9670-2512.8,9137.5-4774.1c-360.5-1532.1-1630.4-2802-3162.5-3162.5C2927.2-8649.3,141.6-5880.1,862.6-2832.3C1403.3-546.5,3697.3,870.9,5974.9,338.4z"/><path d="M3238.5-2365.3c-131.1-122.9-204.8-295-204.8-450.6c0-155.7,73.7-327.7,204.8-450.6c401.4-409.6,1106-122.9,1106,450.6c0,335.9-319.5,655.4-655.4,655.4C3533.5-2160.5,3361.4-2234.2,3238.5-2365.3z"/><path d="M5860.3-2365.3c-131.1-122.9-204.8-295-204.8-450.6c0-155.7,73.7-327.7,204.8-450.6c122.9-131.1,294.9-204.8,450.6-204.8c155.6,0,327.7,73.7,450.6,204.8c131.1,122.9,204.8,294.9,204.8,450.6c0,155.6-73.8,327.7-204.8,450.6c-122.9,131.1-295,204.8-450.6,204.8C6155.2-2160.5,5983.2-2234.2,5860.3-2365.3z"/><path d="M2673.2-5183.7l-237.6-155.6l426-450.6c614.5-655.4,1228.9-917.6,2138.4-917.6c901.2,0,1523.9,262.2,2138.3,917.6l426,450.6l-262.2,155.6c-139.3,81.9-278.5,155.7-303.2,155.7c-16.3,0-155.6-131.1-294.9-295c-843.9-958.5-2351.3-1007.7-3277.2-114.6c-237.6,229.4-442.4,409.6-467,409.6C2935.4-5028,2804.3-5101.8,2673.2-5183.7z"/></g></g>
</svg>